<?xml version="1.0" encoding="utf-8"?>
<!-- Generator: Adobe Illustrator 21.0.0, SVG Export Plug-In . SVG Version: 6.00 Build 0)  -->
<svg version="1.1" id="Layer_1" xmlns="http://www.w3.org/2000/svg" xmlns:xlink="http://www.w3.org/1999/xlink" x="0px" y="0px"
	 viewBox="0 0 128 128" style="enable-background:new 0 0 128 128;" xml:space="preserve">
<g>
	<g>
		<g>
			<rect x="76.568" y="20.249" style="fill:#FFD452;" width="33.323" height="65.018"/>
		</g>
	</g>
	<g>
		<g>
			<g>
				<path style="fill:#4A555F;" d="M124.583,5.614H3.417C2.91,5.614,2.5,6.027,2.5,6.535v91.37c0,0.509,0.41,0.921,0.917,0.921
					h48.742v16.494l-15.005,5.505h0c-2.003,0.735-2.63,2.599-2.362,4.119S36.283,128,38.415,128h54.901
					c2.138,0,3.361-1.539,3.626-3.064c0.264-1.525-0.37-3.39-2.382-4.116l-15.243-5.502V98.826h45.266
					c0.506,0,0.917-0.412,0.917-0.921V6.535C125.5,6.027,125.09,5.614,124.583,5.614z M123.667,96.984H78.401
					c-0.506,0-0.917,0.412-0.917,0.921v18.06c0,0.389,0.243,0.736,0.607,0.867l15.85,5.721c1.079,0.389,1.318,1.356,1.195,2.066
					c-0.123,0.71-0.673,1.538-1.82,1.538H38.415c-1.143,0-1.694-0.826-1.819-1.533c-0.124-0.707,0.112-1.674,1.186-2.068h0
					l15.607-5.726c0.362-0.133,0.602-0.479,0.602-0.865v-18.06c0-0.509-0.41-0.921-0.917-0.921H4.333V7.457h119.334V96.984z"/>
			</g>
		</g>
	</g>
	<g>
		<g>
			<g>
				<path style="fill:#0c2233;" d="M121.531,94.833V9.609H6.473v85.224h49.656v23.282l-16.063,5.89h51.575l-16.295-5.877V94.833
					H121.531z M12.711,89.92V15.535h102.826V89.92H12.711z"/>
			</g>
		</g>
	</g>
	<g>
		<g>
			<g>
				<path style="fill:#4A555F;" d="M115.538,14.645H12.713c-0.506,0-0.917,0.412-0.917,0.921v74.385c0,0.509,0.41,0.921,0.917,0.921
					h102.825c0.506,0,0.917-0.412,0.917-0.921V15.566C116.455,15.057,116.044,14.645,115.538,14.645z M114.622,89.03H13.63V16.487
					h100.992V89.03z"/>
			</g>
		</g>
	</g>
	<g>
		<g>
			<rect x="53.075" y="96.984" style="fill:#4A555F;" width="25.326" height="1.842"/>
		</g>
	</g>
	<g>
		<g>
			<path style="fill:#4A555F;" d="M39.912,40.601l-13.144-6.836c-3.929-2.044-6.37-6.075-6.37-10.522v-2.993h-1.833v2.993
				c0,5.138,2.82,9.797,7.36,12.158l13.144,6.837c3.929,2.044,6.37,6.075,6.37,10.522c0,4.446-2.441,8.478-6.37,10.522
				l-13.144,6.837c-4.54,2.361-7.36,7.02-7.36,12.158v2.993h1.833v-2.993c0-4.447,2.441-8.478,6.37-10.522l13.144-6.836
				c4.54-2.361,7.36-7.02,7.36-12.158C47.272,47.62,44.451,42.962,39.912,40.601z"/>
		</g>
	</g>
	<g>
		<g>
			<path style="fill:#4A555F;" d="M26.767,42.237L39.912,35.4c4.54-2.361,7.36-7.02,7.36-12.158v-2.993h-1.833v2.993
				c0,4.447-2.441,8.478-6.37,10.522l-13.144,6.836c-4.54,2.361-7.36,7.02-7.36,12.158c0,5.138,2.82,9.797,7.36,12.158l13.144,6.836
				c3.929,2.044,6.37,6.075,6.37,10.522v2.993h1.833v-2.993c0-5.138-2.82-9.797-7.36-12.158L26.767,63.28
				c-3.929-2.044-6.37-6.075-6.37-10.522C20.398,48.312,22.839,44.28,26.767,42.237z"/>
		</g>
	</g>
	<g>
		<g>
			<g>
				<path style="fill:#71CCE0;" d="M38.307,73.234l-5.389-2.803l-5.388,2.803c-3.376,1.756-5.473,5.22-5.473,9.041v2.993H43.78
					v-2.993C43.78,78.454,41.683,74.99,38.307,73.234z"/>
			</g>
		</g>
		<g>
			<g>
				<path style="fill:#71CCE0;" d="M22.057,20.249v2.993c0,3.821,2.097,7.285,5.473,9.041l5.388,2.803l5.388-2.802
					c3.376-1.756,5.473-5.22,5.473-9.041v-2.993H22.057z"/>
			</g>
		</g>
		<g>
			<g>
				<path style="fill:#71CCE0;" d="M38.307,43.718l-5.388-2.803l-5.388,2.802c-3.376,1.756-5.473,5.22-5.473,9.041
					c0,3.821,2.097,7.285,5.473,9.041l5.388,2.802l5.389-2.803c3.376-1.756,5.473-5.22,5.473-9.041
					C43.78,48.938,41.683,45.473,38.307,43.718z"/>
			</g>
		</g>
	</g>
	<g>
		<g>
			<rect x="24.538" y="47.888" style="fill:#4A555F;" width="16.542" height="1.842"/>
		</g>
	</g>
	<g>
		<g>
			<rect x="24.538" y="24.909" style="fill:#4A555F;" width="16.542" height="1.842"/>
		</g>
	</g>
	<g>
		<g>
			<rect x="24.538" y="55.404" style="fill:#4A555F;" width="16.542" height="1.842"/>
		</g>
	</g>
	<g>
		<g>
			<rect x="24.538" y="79.344" style="fill:#4A555F;" width="16.542" height="1.842"/>
		</g>
	</g>
	<g>
		<g>
			<polygon style="fill:#F58E6F;" points="70.821,52.24 64.363,46.257 64.363,50.281 53.921,50.281 53.921,54.199 64.363,54.199 
				64.363,58.224 			"/>
		</g>
	</g>
	<g>
		<g>
			<path style="fill:#4A555F;" d="M71.442,51.563l-6.458-5.983c-0.267-0.247-0.655-0.313-0.989-0.166
				c-0.333,0.147-0.549,0.478-0.549,0.844v3.103h-9.526v1.842h10.442c0.506,0,0.917-0.412,0.917-0.921v-1.922l4.189,3.881
				l-4.189,3.881V54.2c0-0.509-0.41-0.921-0.917-0.921H53.921v1.842h9.526v3.103c0,0.366,0.215,0.697,0.549,0.844
				c0.118,0.052,0.243,0.077,0.368,0.077c0.226,0,0.449-0.084,0.621-0.244l6.458-5.983c0.188-0.175,0.295-0.42,0.295-0.677
				C71.738,51.983,71.631,51.737,71.442,51.563z"/>
		</g>
	</g>
	<g>
		<g>
			<path style="fill:#4A555F;" d="M93.466,22.109h-1.287c-0.277,0-0.538,0.126-0.712,0.342l-1.244,1.544l1.425,1.159l0.902-1.12
				v7.237h1.833v-8.24C94.382,22.521,93.972,22.109,93.466,22.109z"/>
		</g>
	</g>
	<g>
		<g>
			<rect x="91.49" y="30.349" style="fill:#4A555F;" width="4.003" height="1.842"/>
		</g>
	</g>
	<g>
		<g>
			<path style="fill:#4A555F;" d="M102.984,22.109h-1.288c-0.277,0-0.539,0.126-0.712,0.342l-1.244,1.544l1.425,1.159l0.902-1.121
				v7.237h1.833v-8.24C103.901,22.521,103.49,22.109,102.984,22.109z"/>
		</g>
	</g>
	<g>
		<g>
			<rect x="101.008" y="30.349" style="fill:#4A555F;" width="4.004" height="1.842"/>
		</g>
	</g>
	<g>
		<g>
			<g>
				<path style="fill:#4A555F;" d="M85.309,22.109h-2.288c-1.454,0-2.637,1.189-2.637,2.65v4.782c0,1.461,1.183,2.65,2.637,2.65
					h2.288c1.454,0,2.637-1.189,2.637-2.65v-4.782C87.945,23.298,86.762,22.109,85.309,22.109z M86.112,29.542
					c0,0.445-0.361,0.808-0.804,0.808h-2.288c-0.443,0-0.804-0.363-0.804-0.808v-4.782c0-0.445,0.361-0.808,0.804-0.808h2.288
					c0.443,0,0.804,0.362,0.804,0.808V29.542z"/>
			</g>
		</g>
	</g>
	<g>
		<g>
			<g>
				<path style="fill:#4A555F;" d="M94.546,59.56h-2.288c-1.454,0-2.637,1.189-2.637,2.65v4.782c0,1.461,1.183,2.65,2.637,2.65
					h2.288c1.454,0,2.637-1.189,2.637-2.65v-4.782C97.183,60.749,96,59.56,94.546,59.56z M95.35,66.993
					c0,0.445-0.361,0.808-0.804,0.808h-2.288c-0.443,0-0.804-0.363-0.804-0.808v-4.782c0-0.445,0.361-0.808,0.804-0.808h2.288
					c0.443,0,0.804,0.362,0.804,0.808V66.993z"/>
			</g>
		</g>
	</g>
	<g>
		<g>
			<g>
				<path style="fill:#4A555F;" d="M103.957,59.56h-2.288c-1.454,0-2.637,1.189-2.637,2.65v4.782c0,1.461,1.183,2.65,2.637,2.65
					h2.288c1.454,0,2.637-1.189,2.637-2.65v-4.782C106.594,60.749,105.411,59.56,103.957,59.56z M104.76,66.993
					c0,0.445-0.361,0.808-0.804,0.808h-2.288c-0.443,0-0.804-0.363-0.804-0.808v-4.782c0-0.445,0.361-0.808,0.804-0.808h2.288
					c0.443,0,0.804,0.362,0.804,0.808V66.993z"/>
			</g>
		</g>
	</g>
	<g>
		<g>
			<path style="fill:#4A555F;" d="M93.466,34.137h-1.287c-0.277,0-0.538,0.126-0.712,0.341l-1.244,1.544l1.425,1.159l0.902-1.12
				v7.237h1.833v-8.24C94.382,34.549,93.972,34.137,93.466,34.137z"/>
		</g>
	</g>
	<g>
		<g>
			<rect x="91.49" y="42.377" style="fill:#4A555F;" width="4.003" height="1.842"/>
		</g>
	</g>
	<g>
		<g>
			<path style="fill:#4A555F;" d="M84.159,34.137h-1.288c-0.277,0-0.539,0.126-0.713,0.341l-1.243,1.544l1.425,1.159l0.902-1.121
				v7.237h1.833v-8.24C85.076,34.549,84.665,34.137,84.159,34.137z"/>
		</g>
	</g>
	<g>
		<g>
			<rect x="82.183" y="42.377" style="fill:#4A555F;" width="4.004" height="1.842"/>
		</g>
	</g>
	<g>
		<g>
			<path style="fill:#4A555F;" d="M102.984,34.137h-1.288c-0.277,0-0.539,0.126-0.712,0.341l-1.244,1.544l1.425,1.159l0.902-1.121
				v7.237h1.833v-8.24C103.901,34.549,103.49,34.137,102.984,34.137z"/>
		</g>
	</g>
	<g>
		<g>
			<rect x="101.008" y="42.377" style="fill:#4A555F;" width="4.004" height="1.842"/>
		</g>
	</g>
	<g>
		<g>
			<path style="fill:#4A555F;" d="M84.162,47.006h-1.288c-0.277,0-0.539,0.126-0.712,0.342l-1.243,1.545l1.425,1.159l0.902-1.121
				v7.237h1.833v-8.24C85.079,47.419,84.669,47.006,84.162,47.006z"/>
		</g>
	</g>
	<g>
		<g>
			<rect x="82.186" y="55.247" style="fill:#4A555F;" width="4.003" height="1.842"/>
		</g>
	</g>
	<g>
		<g>
			<path style="fill:#4A555F;" d="M84.162,59.56h-1.288c-0.277,0-0.539,0.126-0.712,0.342l-1.243,1.545l1.425,1.159l0.902-1.121
				v7.237h1.833v-8.241C85.079,59.973,84.669,59.56,84.162,59.56z"/>
		</g>
	</g>
	<g>
		<g>
			<rect x="82.186" y="67.801" style="fill:#4A555F;" width="4.003" height="1.842"/>
		</g>
	</g>
	<g>
		<g>
			<path style="fill:#4A555F;" d="M84.162,72.302h-1.288c-0.277,0-0.539,0.126-0.712,0.342l-1.243,1.545l1.425,1.159l0.902-1.121
				v7.237h1.833v-8.241C85.079,72.714,84.669,72.302,84.162,72.302z"/>
		</g>
	</g>
	<g>
		<g>
			<rect x="82.186" y="80.543" style="fill:#4A555F;" width="4.003" height="1.842"/>
		</g>
	</g>
	<g>
		<g>
			<path style="fill:#4A555F;" d="M93.68,47.006h-1.287c-0.277,0-0.539,0.126-0.713,0.341l-1.244,1.545l1.425,1.159l0.902-1.121
				v7.237h1.833v-8.24C94.597,47.419,94.187,47.006,93.68,47.006z"/>
		</g>
	</g>
	<g>
		<g>
			<rect x="91.705" y="55.247" style="fill:#4A555F;" width="4.003" height="1.842"/>
		</g>
	</g>
	<g>
		<g>
			<path style="fill:#4A555F;" d="M103.136,72.302h-1.288c-0.276,0-0.538,0.126-0.712,0.342l-1.243,1.545l1.425,1.159l0.902-1.121
				v7.237h1.833v-8.241C104.052,72.714,103.642,72.302,103.136,72.302z"/>
		</g>
	</g>
	<g>
		<g>
			<rect x="101.16" y="80.543" style="fill:#4A555F;" width="4.003" height="1.842"/>
		</g>
	</g>
	<g>
		<g>
			<g>
				<path style="fill:#4A555F;" d="M94.8,72.302h-2.288c-1.454,0-2.637,1.189-2.637,2.65v4.782c0,1.461,1.183,2.65,2.637,2.65H94.8
					c1.454,0,2.637-1.189,2.637-2.65v-4.782C97.436,73.491,96.253,72.302,94.8,72.302z M95.603,79.735
					c0,0.445-0.361,0.808-0.804,0.808h-2.288c-0.443,0-0.804-0.363-0.804-0.808v-4.782c0-0.445,0.361-0.808,0.804-0.808H94.8
					c0.443,0,0.804,0.363,0.804,0.808V79.735z"/>
			</g>
		</g>
	</g>
	<g>
		<g>
			<g>
				<path style="fill:#4A555F;" d="M103.903,47.006h-2.288c-1.454,0-2.637,1.189-2.637,2.65v4.782c0,1.461,1.183,2.65,2.637,2.65
					h2.288c1.454,0,2.637-1.189,2.637-2.65v-4.782C106.539,48.195,105.357,47.006,103.903,47.006z M104.706,54.439
					c0,0.445-0.361,0.808-0.804,0.808h-2.288c-0.443,0-0.804-0.363-0.804-0.808v-4.782c0-0.445,0.361-0.808,0.804-0.808h2.288
					c0.443,0,0.804,0.363,0.804,0.808V54.439z"/>
			</g>
		</g>
	</g>
	<g>
		<g>
			<g>
				<path style="fill:#4A555F;" d="M39.341,114.35l0.702,1.702l1.693-0.705l-0.702-1.702L39.341,114.35z M35.954,115.761
					l0.702,1.702l1.693-0.705l-0.702-1.702L35.954,115.761z M32.568,117.172l0.702,1.702l1.693-0.705l-0.702-1.702L32.568,117.172z
					 M45.443,111.236l1.386,1.206c0.464-0.539,0.839-1.144,1.117-1.799l-1.687-0.721C46.057,110.4,45.782,110.842,45.443,111.236z
					 M46.657,102.976v1.842h1.833v-1.842H46.657z M43.587,112.582l-0.859,0.358l0.702,1.702l0.859-0.358
					c0.322-0.134,0.635-0.294,0.929-0.474l-0.953-1.574C44.051,112.367,43.822,112.484,43.587,112.582z M46.657,107.963
					c0,0.154-0.007,0.306-0.021,0.457l1.825,0.167c0.019-0.206,0.028-0.414,0.028-0.623v-1.302h-1.833V107.963z"/>
			</g>
		</g>
	</g>
	<g>
		<g>
			<g>
				<path style="fill:#4A555F;" d="M110.848,1.842h1.833V0h-1.833V1.842z M114.514,1.842h1.833V0h-1.833V1.842z M107.182,1.842
					h1.833V0h-1.833V1.842z M121.846,0v1.842h1.833V0H121.846z M118.18,1.842h1.833V0h-1.833V1.842z"/>
			</g>
		</g>
	</g>
</g>
</svg>
