<?xml version="1.0" encoding="utf-8"?>
<!-- Generator: Adobe Illustrator 21.0.0, SVG Export Plug-In . SVG Version: 6.00 Build 0)  -->
<svg version="1.1" id="Layer_1" xmlns="http://www.w3.org/2000/svg" xmlns:xlink="http://www.w3.org/1999/xlink" x="0px" y="0px"
	 viewBox="0 0 128 128" style="enable-background:new 0 0 128 128;" xml:space="preserve">
<g>
	<g>
		<g>
			<rect x="88.124" y="28.023" style="fill:#71CCE0;" width="35.509" height="25.109"/>
		</g>
	</g>
	<g>
		<g>
			<rect x="88.124" y="76.594" style="fill:#FFD452;" width="35.171" height="25.109"/>
		</g>
	</g>
	<g>
		<g>
			<path style="fill:#0c2233;" d="M24.896,89.149l-6.412,2.609c-8.225,3.347-13.54,11.22-13.54,20.067V125.5h7.703v-13.675
				c0-5.713,3.437-10.801,8.746-12.961l13.694-5.572L24.896,89.149z"/>
		</g>
	</g>
	<g>
		<g>
			<path style="fill:#0c2233;" d="M60.451,43.626L20.801,25.341c-4.954-2.284-8.154-7.271-8.154-12.707V2.5H4.944v10.134
				c0,8.411,4.954,16.131,12.616,19.666L57.215,50.59c4.954,2.284,8.148,7.266,8.148,12.702c0,5.713-3.431,10.801-8.741,12.961
				l-13.694,5.565l10.192,4.143l6.412-2.609c8.225-3.341,13.534-11.214,13.534-20.061C73.066,54.881,68.118,47.161,60.451,43.626z"
				/>
		</g>
	</g>
	<g>
		<g>
			<path style="fill:#0c2233;" d="M65.363,2.5v10.134c0,5.436-3.194,10.423-8.148,12.707l-14.678,6.77l9.167,4.226l8.746-4.037
				c7.668-3.535,12.616-11.255,12.616-19.666V2.5H65.363z"/>
		</g>
	</g>
	<g>
		<g>
			<path style="fill:#0c2233;" d="M59.532,91.757l-6.412-2.609l-18.032-7.33l-13.694-5.565c-5.31-2.16-8.746-7.248-8.746-12.961
				c0-5.436,3.2-10.417,8.154-12.702l14.684-6.775l-9.173-4.226l-8.752,4.037C9.898,47.161,4.944,54.881,4.944,63.292
				c0,8.847,5.315,16.72,13.54,20.061l6.412,2.609l18.032,7.33l13.694,5.572c5.31,2.16,8.741,7.242,8.741,12.961V125.5h7.703
				v-13.675C73.066,102.977,67.757,95.104,59.532,91.757z"/>
		</g>
	</g>
	<g>
		<g>
			<path style="fill:#4A555F;" d="M55.838,100.774l-38.14-15.506C8.692,81.607,2.873,72.98,2.873,63.291
				c0-9.214,5.424-17.669,13.818-21.54l3.157-1.456l-0.747-1.607l-3.157,1.456C6.923,44.305,1.095,53.39,1.095,63.291
				c0,10.411,6.253,19.681,15.931,23.616l38.14,15.506c3.856,1.567,6.347,5.261,6.347,9.409V125.5h1.778v-13.678
				C63.291,106.952,60.366,102.615,55.838,100.774z"/>
		</g>
	</g>
	<g>
		<g>
			<path style="fill:#4A555F;" d="M60.989,88.207L22.849,72.7c-3.856-1.568-6.347-5.261-6.347-9.409
				c0-3.945,2.322-7.564,5.916-9.222l12.703-5.858l-0.747-1.607l-12.703,5.858c-4.22,1.946-6.947,6.197-6.947,10.829
				c0,4.87,2.926,9.207,7.453,11.048l38.14,15.506c9.006,3.661,14.825,12.288,14.825,21.977V125.5h1.778v-13.678
				C76.92,101.411,70.667,92.141,60.989,88.207z"/>
		</g>
	</g>
	<g>
		<g>
			<path style="fill:#4A555F;" d="M75.143,2.5v10.135c0,9.214-5.424,17.669-13.818,21.54l-2.645,1.22l0.747,1.607l2.646-1.22
				c9.02-4.16,14.849-13.246,14.849-23.147V2.5H75.143z"/>
		</g>
	</g>
	<g>
		<g>
			<path style="fill:#4A555F;" d="M61.513,2.5v10.135c0,3.944-2.322,7.564-5.916,9.222L42.69,27.809l0.747,1.607l12.907-5.952
				c4.22-1.946,6.947-6.197,6.947-10.829V2.5H61.513z"/>
		</g>
	</g>
	<g>
		<g>
			<g>
				<polygon style="fill:#4A555F;" points="43.264,80.999 42.592,82.638 52.784,86.781 53.456,85.142 				"/>
			</g>
		</g>
		<g>
			<g>
				<polygon style="fill:#4A555F;" points="25.232,88.329 24.56,89.968 34.752,94.112 35.424,92.472 				"/>
			</g>
		</g>
	</g>
	<g>
		<g>
			<rect x="15.613" y="7.038" style="fill:#4A555F;" width="46.789" height="1.771"/>
		</g>
	</g>
	<g>
		<g>
			<rect x="17.177" y="17.381" style="fill:#4A555F;" width="43.661" height="1.771"/>
		</g>
	</g>
	<g>
		<g>
			<rect x="15.612" y="115.598" style="fill:#4A555F;" width="46.79" height="1.771"/>
		</g>
	</g>
	<g>
		<g>
			<rect x="17.177" y="105.255" style="fill:#4A555F;" width="43.661" height="1.771"/>
		</g>
	</g>
	<g>
		<g>
			<path style="fill:#4A555F;" d="M62.072,40.145L22.418,21.857c-3.594-1.658-5.916-5.277-5.916-9.222V2.5h-1.778v10.135
				c0,4.632,2.727,8.882,6.947,10.829l39.653,18.288c8.394,3.871,13.818,12.326,13.818,21.54c0,9.689-5.819,18.315-14.825,21.977
				l0.672,1.639c9.678-3.935,15.931-13.204,15.931-23.616C76.92,53.39,71.092,44.305,62.072,40.145z"/>
		</g>
	</g>
	<g>
		<g>
			<path style="fill:#4A555F;" d="M56.344,52.463L16.691,34.175C8.297,30.304,2.873,21.849,2.873,12.635V2.5H1.095v10.135
				c0,9.901,5.828,18.986,14.849,23.147L55.597,54.07c3.594,1.657,5.916,5.277,5.916,9.222c0,4.148-2.491,7.841-6.347,9.409
				l-11.687,4.752l0.672,1.639l11.687-4.752c4.527-1.841,7.453-6.177,7.453-11.048C63.291,58.659,60.564,54.409,56.344,52.463z"/>
		</g>
	</g>
	<g>
		<g>
			<path style="fill:#4A555F;" d="M15.555,88.858c-8.92,4.284-14.461,13.083-14.461,22.964V125.5h1.778v-13.678
				c0-9.195,5.156-17.383,13.455-21.37L15.555,88.858z"/>
		</g>
	</g>
	<g>
		<g>
			<path style="fill:#4A555F;" d="M33.865,96.023l-11.688,4.752c-4.527,1.84-7.453,6.177-7.453,11.048V125.5h1.778v-13.678
				c0-4.148,2.491-7.841,6.347-9.409l11.688-4.752L33.865,96.023z"/>
		</g>
	</g>
	<g>
		<g>
			<rect x="15.613" y="62.406" style="fill:#4A555F;" width="46.789" height="1.771"/>
		</g>
	</g>
	<g>
		<g>
			<rect x="24.896" y="51.066" style="fill:#4A555F;" width="28.223" height="1.771"/>
		</g>
	</g>
	<g>
		<g>
			<rect x="24.896" y="73.746" style="fill:#4A555F;" width="28.223" height="1.771"/>
		</g>
	</g>
	<g>
		<g>
			<path style="fill:#4A555F;" d="M126.519,72.317H84.742c-0.491,0-0.889,0.396-0.889,0.885v31.401l-27.34,8.829l0.548,1.684
				l27.955-9.028c0.366-0.118,0.615-0.458,0.615-0.842V74.088h39.999v30.104H88.124v1.771h38.394c0.491,0,0.889-0.396,0.889-0.885
				V73.202C127.407,72.713,127.009,72.317,126.519,72.317z"/>
		</g>
	</g>
	<g>
		<g>
			<path style="fill:#4A555F;" d="M127.111,23.584H84.685c-0.491,0-0.889,0.396-0.889,0.885v28.663h1.778V25.354h40.648v30.063
				H69.708v1.771h57.404c0.491,0,0.889-0.396,0.889-0.885V24.469C128,23.98,127.602,23.584,127.111,23.584z"/>
		</g>
	</g>
	<g>
		<g>
			<rect x="91.822" y="31.834" style="fill:#4A555F;" width="2.243" height="1.771"/>
		</g>
	</g>
	<g>
		<g>
			<rect x="91.822" y="38.617" style="fill:#4A555F;" width="2.243" height="1.771"/>
		</g>
	</g>
	<g>
		<g>
			<rect x="91.822" y="45.399" style="fill:#4A555F;" width="2.243" height="1.771"/>
		</g>
	</g>
	<g>
		<g>
			<rect x="97.686" y="31.834" style="fill:#4A555F;" width="9.776" height="1.771"/>
		</g>
	</g>
	<g>
		<g>
			<rect x="97.686" y="38.617" style="fill:#4A555F;" width="5.804" height="1.771"/>
		</g>
	</g>
	<g>
		<g>
			<rect x="97.686" y="45.399" style="fill:#4A555F;" width="12.708" height="1.771"/>
		</g>
	</g>
	<g>
		<g>
			<rect x="105.287" y="38.607" style="fill:#4A555F;" width="9.836" height="1.771"/>
		</g>
	</g>
	<g>
		<g>
			<rect x="117.015" y="38.607" style="fill:#4A555F;" width="2.175" height="1.771"/>
		</g>
	</g>
	<g>
		<g>
			<rect x="109.354" y="31.834" style="fill:#4A555F;" width="9.836" height="1.771"/>
		</g>
	</g>
	<g>
		<g>
			<rect x="112.286" y="45.399" style="fill:#4A555F;" width="6.904" height="1.771"/>
		</g>
	</g>
	<g>
		<g>
			<rect x="91.822" y="81.398" style="fill:#4A555F;" width="2.243" height="1.771"/>
		</g>
	</g>
	<g>
		<g>
			<rect x="91.822" y="88.18" style="fill:#4A555F;" width="2.243" height="1.771"/>
		</g>
	</g>
	<g>
		<g>
			<rect x="91.822" y="94.962" style="fill:#4A555F;" width="2.243" height="1.771"/>
		</g>
	</g>
	<g>
		<g>
			<rect x="109.413" y="94.962" style="fill:#4A555F;" width="9.777" height="1.771"/>
		</g>
	</g>
	<g>
		<g>
			<rect x="113.385" y="88.18" style="fill:#4A555F;" width="5.805" height="1.771"/>
		</g>
	</g>
	<g>
		<g>
			<rect x="106.481" y="81.397" style="fill:#4A555F;" width="12.709" height="1.771"/>
		</g>
	</g>
	<g>
		<g>
			<rect x="101.753" y="88.19" style="fill:#4A555F;" width="9.836" height="1.771"/>
		</g>
	</g>
	<g>
		<g>
			<rect x="97.686" y="88.189" style="fill:#4A555F;" width="2.175" height="1.771"/>
		</g>
	</g>
	<g>
		<g>
			<rect x="97.686" y="94.962" style="fill:#4A555F;" width="9.836" height="1.771"/>
		</g>
	</g>
	<g>
		<g>
			<rect x="97.686" y="81.397" style="fill:#4A555F;" width="6.904" height="1.771"/>
		</g>
	</g>
	<g>
		<g>
			<g>
				<path style="fill:#4A555F;" d="M72.351,32.738l1.284,1.225c0.423-0.44,0.836-0.892,1.229-1.346l-1.347-1.156
					C73.144,31.892,72.752,32.322,72.351,32.738z M74.608,30.126l1.41,1.079c0.373-0.484,0.734-0.981,1.073-1.477l-1.47-0.995
					C75.301,29.201,74.96,29.67,74.608,30.126z M69.826,35.1l1.147,1.353c0.463-0.389,0.921-0.796,1.363-1.21l-1.216-1.291
					C70.7,34.344,70.264,34.73,69.826,35.1z M67.08,37.142l0.923,1.513c0.025-0.015,0.615-0.373,1.538-1.065l-1.068-1.416
					C67.627,36.808,67.086,37.138,67.08,37.142z M79.608,19.348c-0.108,0.558-0.237,1.117-0.384,1.662l1.718,0.458
					c0.157-0.586,0.296-1.187,0.411-1.786L79.608,19.348z M76.545,27.285l1.529,0.903c0.314-0.526,0.612-1.065,0.885-1.601
					l-1.584-0.803C77.118,26.286,76.839,26.791,76.545,27.285z M78.103,24.234l1.634,0.696c0.242-0.564,0.466-1.139,0.664-1.709
					l-1.679-0.58C78.537,23.173,78.329,23.708,78.103,24.234z"/>
			</g>
		</g>
	</g>
	<g>
		<g>
			<g>
				<path style="fill:#4A555F;" d="M2.076,92.67l1.391,1.103c0.342-0.428,0.718-0.868,1.117-1.308l-1.319-1.187
					C2.841,91.745,2.442,92.213,2.076,92.67z M0,95.729l1.56,0.85c0.257-0.468,0.555-0.951,0.887-1.435l-1.469-0.997
					C0.614,94.678,0.285,95.21,0,95.729z M4.522,89.962l1.257,1.252c0.402-0.4,0.825-0.803,1.258-1.197l-1.199-1.307
					C5.386,89.121,4.943,89.542,4.522,89.962z M8.65,86.376c-0.024,0.017-0.587,0.427-1.443,1.141l1.141,1.358
					c0.807-0.673,1.345-1.065,1.35-1.069L8.65,86.376z"/>
			</g>
		</g>
	</g>
</g>
</svg>
